<mxfile host="app.diagrams.net" agent="Mozilla/5.0 (Macintosh; Intel Mac OS X 10_15_7) AppleWebKit/605.1.15 (KHTML, like Gecko) Version/17.5 Safari/605.1.15" version="26.0.2">
  <diagram id="C5RBs43oDa-KdzZeNtuy" name="Page-1">
    <mxGraphModel dx="2298" dy="802" grid="1" gridSize="10" guides="1" tooltips="1" connect="1" arrows="1" fold="1" page="1" pageScale="1" pageWidth="1000" pageHeight="700" math="0" shadow="0">
      <root>
        <mxCell id="WIyWlLk6GJQsqaUBKTNV-0" />
        <mxCell id="WIyWlLk6GJQsqaUBKTNV-1" parent="WIyWlLk6GJQsqaUBKTNV-0" />
        <mxCell id="24HZxji45wdSupQVXooi-0" value="Strapi" style="swimlane;whiteSpace=wrap;html=1;" vertex="1" parent="WIyWlLk6GJQsqaUBKTNV-1">
          <mxGeometry x="660" y="60" width="370" height="630" as="geometry" />
        </mxCell>
        <mxCell id="24HZxji45wdSupQVXooi-5" value="/auth/local" style="rounded=1;whiteSpace=wrap;html=1;" vertex="1" parent="24HZxji45wdSupQVXooi-0">
          <mxGeometry x="30" y="70" width="120" height="60" as="geometry" />
        </mxCell>
        <mxCell id="24HZxji45wdSupQVXooi-8" value="generate&lt;div&gt;jwt&lt;/div&gt;" style="whiteSpace=wrap;html=1;rounded=1;" vertex="1" parent="24HZxji45wdSupQVXooi-0">
          <mxGeometry x="20" y="290" width="120" height="60" as="geometry" />
        </mxCell>
        <mxCell id="24HZxji45wdSupQVXooi-23" style="edgeStyle=orthogonalEdgeStyle;rounded=0;orthogonalLoop=1;jettySize=auto;html=1;entryX=0.42;entryY=-0.02;entryDx=0;entryDy=0;entryPerimeter=0;" edge="1" parent="24HZxji45wdSupQVXooi-0" source="24HZxji45wdSupQVXooi-20" target="24HZxji45wdSupQVXooi-24">
          <mxGeometry relative="1" as="geometry">
            <mxPoint x="150" y="550" as="targetPoint" />
          </mxGeometry>
        </mxCell>
        <mxCell id="24HZxji45wdSupQVXooi-26" value="VALID" style="edgeLabel;html=1;align=center;verticalAlign=middle;resizable=0;points=[];" vertex="1" connectable="0" parent="24HZxji45wdSupQVXooi-23">
          <mxGeometry x="0.0654" y="1" relative="1" as="geometry">
            <mxPoint as="offset" />
          </mxGeometry>
        </mxCell>
        <mxCell id="24HZxji45wdSupQVXooi-20" value="validate&lt;div&gt;token&lt;/div&gt;" style="strokeWidth=2;html=1;shape=mxgraph.flowchart.decision;whiteSpace=wrap;" vertex="1" parent="24HZxji45wdSupQVXooi-0">
          <mxGeometry x="100" y="410" width="100" height="80" as="geometry" />
        </mxCell>
        <mxCell id="24HZxji45wdSupQVXooi-6" value="verify credentials" style="rounded=1;whiteSpace=wrap;html=1;" vertex="1" parent="24HZxji45wdSupQVXooi-0">
          <mxGeometry x="100" y="180" width="120" height="60" as="geometry" />
        </mxCell>
        <mxCell id="24HZxji45wdSupQVXooi-7" value="" style="edgeStyle=orthogonalEdgeStyle;rounded=0;orthogonalLoop=1;jettySize=auto;html=1;" edge="1" parent="24HZxji45wdSupQVXooi-0" source="24HZxji45wdSupQVXooi-5" target="24HZxji45wdSupQVXooi-6">
          <mxGeometry relative="1" as="geometry" />
        </mxCell>
        <mxCell id="24HZxji45wdSupQVXooi-9" value="" style="edgeStyle=orthogonalEdgeStyle;rounded=0;orthogonalLoop=1;jettySize=auto;html=1;" edge="1" parent="24HZxji45wdSupQVXooi-0" source="24HZxji45wdSupQVXooi-6" target="24HZxji45wdSupQVXooi-8">
          <mxGeometry relative="1" as="geometry" />
        </mxCell>
        <mxCell id="24HZxji45wdSupQVXooi-19" style="edgeStyle=orthogonalEdgeStyle;rounded=0;orthogonalLoop=1;jettySize=auto;html=1;entryX=0.5;entryY=0;entryDx=0;entryDy=0;entryPerimeter=0;" edge="1" parent="24HZxji45wdSupQVXooi-0" source="24HZxji45wdSupQVXooi-6" target="24HZxji45wdSupQVXooi-20">
          <mxGeometry relative="1" as="geometry">
            <mxPoint x="250" y="360" as="targetPoint" />
          </mxGeometry>
        </mxCell>
        <mxCell id="24HZxji45wdSupQVXooi-24" value="calculate requested&lt;div&gt;data&lt;/div&gt;" style="rounded=1;whiteSpace=wrap;html=1;absoluteArcSize=1;arcSize=14;strokeWidth=2;" vertex="1" parent="24HZxji45wdSupQVXooi-0">
          <mxGeometry x="80" y="570" width="100" height="50" as="geometry" />
        </mxCell>
        <mxCell id="24HZxji45wdSupQVXooi-31" style="edgeStyle=orthogonalEdgeStyle;rounded=0;orthogonalLoop=1;jettySize=auto;html=1;entryX=1;entryY=0.5;entryDx=0;entryDy=0;endArrow=none;endFill=0;" edge="1" parent="24HZxji45wdSupQVXooi-0" source="24HZxji45wdSupQVXooi-30" target="24HZxji45wdSupQVXooi-8">
          <mxGeometry relative="1" as="geometry" />
        </mxCell>
        <mxCell id="24HZxji45wdSupQVXooi-30" value="&lt;span style=&quot;color: rgb(255, 0, 0);&quot;&gt;token is not stored anywhere, a user can have any number of tokens&lt;/span&gt;" style="shape=callout;whiteSpace=wrap;html=1;perimeter=calloutPerimeter;" vertex="1" parent="24HZxji45wdSupQVXooi-0">
          <mxGeometry x="180" y="245" width="140" height="140" as="geometry" />
        </mxCell>
        <mxCell id="24HZxji45wdSupQVXooi-1" value="" style="endArrow=classic;html=1;rounded=0;exitX=1;exitY=0.5;exitDx=0;exitDy=0;" edge="1" parent="WIyWlLk6GJQsqaUBKTNV-1" source="24HZxji45wdSupQVXooi-14">
          <mxGeometry relative="1" as="geometry">
            <mxPoint x="170" y="160" as="sourcePoint" />
            <mxPoint x="660" y="160" as="targetPoint" />
          </mxGeometry>
        </mxCell>
        <mxCell id="24HZxji45wdSupQVXooi-2" value="{ identifier:&lt;div&gt;password: }&lt;/div&gt;" style="edgeLabel;resizable=0;html=1;;align=center;verticalAlign=middle;" connectable="0" vertex="1" parent="24HZxji45wdSupQVXooi-1">
          <mxGeometry relative="1" as="geometry" />
        </mxCell>
        <mxCell id="24HZxji45wdSupQVXooi-11" value="Web interface" style="swimlane;whiteSpace=wrap;html=1;" vertex="1" parent="WIyWlLk6GJQsqaUBKTNV-1">
          <mxGeometry x="-60" y="60" width="200" height="620" as="geometry" />
        </mxCell>
        <mxCell id="24HZxji45wdSupQVXooi-14" value="login screen" style="rounded=1;whiteSpace=wrap;html=1;absoluteArcSize=1;arcSize=14;strokeWidth=2;" vertex="1" parent="24HZxji45wdSupQVXooi-11">
          <mxGeometry x="50" y="70" width="100" height="70" as="geometry" />
        </mxCell>
        <mxCell id="24HZxji45wdSupQVXooi-15" value="store jwt&lt;div&gt;and redirect&lt;/div&gt;" style="label;whiteSpace=wrap;html=1;image=img/clipart/Gear_128x128.png" vertex="1" parent="24HZxji45wdSupQVXooi-11">
          <mxGeometry x="40" y="290" width="140" height="60" as="geometry" />
        </mxCell>
        <mxCell id="24HZxji45wdSupQVXooi-16" value="get data request" style="shape=ext;double=1;rounded=1;whiteSpace=wrap;html=1;" vertex="1" parent="24HZxji45wdSupQVXooi-11">
          <mxGeometry x="40" y="430" width="120" height="80" as="geometry" />
        </mxCell>
        <mxCell id="24HZxji45wdSupQVXooi-10" style="edgeStyle=orthogonalEdgeStyle;rounded=0;orthogonalLoop=1;jettySize=auto;html=1;" edge="1" parent="WIyWlLk6GJQsqaUBKTNV-1" source="24HZxji45wdSupQVXooi-8" target="24HZxji45wdSupQVXooi-15">
          <mxGeometry relative="1" as="geometry">
            <mxPoint x="170" y="380" as="targetPoint" />
          </mxGeometry>
        </mxCell>
        <mxCell id="24HZxji45wdSupQVXooi-17" style="edgeStyle=orthogonalEdgeStyle;rounded=0;orthogonalLoop=1;jettySize=auto;html=1;exitX=1;exitY=0.5;exitDx=0;exitDy=0;entryX=0;entryY=0.5;entryDx=0;entryDy=0;entryPerimeter=0;" edge="1" parent="WIyWlLk6GJQsqaUBKTNV-1" source="24HZxji45wdSupQVXooi-16" target="24HZxji45wdSupQVXooi-20">
          <mxGeometry relative="1" as="geometry">
            <mxPoint x="740" y="520" as="targetPoint" />
          </mxGeometry>
        </mxCell>
        <mxCell id="24HZxji45wdSupQVXooi-25" style="edgeStyle=orthogonalEdgeStyle;rounded=0;orthogonalLoop=1;jettySize=auto;html=1;entryX=0.5;entryY=1;entryDx=0;entryDy=0;fillColor=#60a917;strokeColor=#2D7600;" edge="1" parent="WIyWlLk6GJQsqaUBKTNV-1" source="24HZxji45wdSupQVXooi-24" target="24HZxji45wdSupQVXooi-34">
          <mxGeometry relative="1" as="geometry" />
        </mxCell>
        <mxCell id="24HZxji45wdSupQVXooi-29" value="DATA" style="edgeLabel;html=1;align=center;verticalAlign=middle;resizable=0;points=[];" vertex="1" connectable="0" parent="24HZxji45wdSupQVXooi-25">
          <mxGeometry x="-0.2302" y="-4" relative="1" as="geometry">
            <mxPoint as="offset" />
          </mxGeometry>
        </mxCell>
        <mxCell id="24HZxji45wdSupQVXooi-27" style="edgeStyle=orthogonalEdgeStyle;rounded=0;orthogonalLoop=1;jettySize=auto;html=1;entryX=0.5;entryY=0;entryDx=0;entryDy=0;fillColor=#a20025;strokeColor=#6F0000;exitX=0.5;exitY=0;exitDx=0;exitDy=0;exitPerimeter=0;" edge="1" parent="WIyWlLk6GJQsqaUBKTNV-1" source="24HZxji45wdSupQVXooi-20" target="24HZxji45wdSupQVXooi-34">
          <mxGeometry relative="1" as="geometry">
            <mxPoint x="800" y="465" as="sourcePoint" />
            <mxPoint x="230" y="555" as="targetPoint" />
            <Array as="points">
              <mxPoint x="580" y="470" />
              <mxPoint x="580" y="445" />
              <mxPoint x="240" y="445" />
            </Array>
          </mxGeometry>
        </mxCell>
        <mxCell id="24HZxji45wdSupQVXooi-28" value="INVALID:&amp;nbsp;&lt;div&gt;{ 401: Not authrozied }&lt;/div&gt;" style="edgeLabel;html=1;align=center;verticalAlign=middle;resizable=0;points=[];" vertex="1" connectable="0" parent="24HZxji45wdSupQVXooi-27">
          <mxGeometry x="0.4405" y="-2" relative="1" as="geometry">
            <mxPoint x="140" y="2" as="offset" />
          </mxGeometry>
        </mxCell>
        <mxCell id="24HZxji45wdSupQVXooi-35" style="edgeStyle=orthogonalEdgeStyle;rounded=0;orthogonalLoop=1;jettySize=auto;html=1;" edge="1" parent="WIyWlLk6GJQsqaUBKTNV-1" source="24HZxji45wdSupQVXooi-34">
          <mxGeometry relative="1" as="geometry">
            <mxPoint x="40" y="200" as="targetPoint" />
            <Array as="points">
              <mxPoint x="210" y="260" />
              <mxPoint x="40" y="260" />
            </Array>
          </mxGeometry>
        </mxCell>
        <mxCell id="24HZxji45wdSupQVXooi-38" value="401" style="edgeLabel;html=1;align=center;verticalAlign=middle;resizable=0;points=[];" vertex="1" connectable="0" parent="24HZxji45wdSupQVXooi-35">
          <mxGeometry x="-0.517" y="3" relative="1" as="geometry">
            <mxPoint as="offset" />
          </mxGeometry>
        </mxCell>
        <mxCell id="24HZxji45wdSupQVXooi-36" value="DATA" style="edgeStyle=orthogonalEdgeStyle;rounded=0;orthogonalLoop=1;jettySize=auto;html=1;entryX=0.5;entryY=1;entryDx=0;entryDy=0;" edge="1" parent="WIyWlLk6GJQsqaUBKTNV-1" source="24HZxji45wdSupQVXooi-34" target="24HZxji45wdSupQVXooi-16">
          <mxGeometry relative="1" as="geometry" />
        </mxCell>
        <mxCell id="24HZxji45wdSupQVXooi-34" value="&lt;span style=&quot;color: rgb(255, 255, 255); background-color: rgb(51, 153, 255);&quot;&gt;&lt;font style=&quot;font-size: 15px;&quot;&gt;Interceptor&lt;/font&gt;&lt;/span&gt;" style="rounded=1;whiteSpace=wrap;html=1;strokeWidth=2;fillWeight=4;hachureGap=8;hachureAngle=45;fillColor=#1ba1e2;sketch=1;" vertex="1" parent="WIyWlLk6GJQsqaUBKTNV-1">
          <mxGeometry x="180" y="560" width="120" height="60" as="geometry" />
        </mxCell>
        <mxCell id="24HZxji45wdSupQVXooi-37" value="TO DO" style="shape=callout;whiteSpace=wrap;html=1;perimeter=calloutPerimeter;" vertex="1" parent="WIyWlLk6GJQsqaUBKTNV-1">
          <mxGeometry x="290" y="550" width="100" height="70" as="geometry" />
        </mxCell>
      </root>
    </mxGraphModel>
  </diagram>
</mxfile>
